<svg version="1.1" xmlns="http://www.w3.org/2000/svg" xmlns:xlink="http://www.w3.org/1999/xlink" x="0px" y="0px"
	 viewBox="0 0 348 502.3" enable-background="new 0 0 348 502.3" xml:space="preserve">
<polygon fill-rule="evenodd" clip-rule="evenodd" class="t t1" fill="#AF06DA" points="227.2,481.6 189.9,440.5 174,389.4 226.4,367.8 
	280.4,389.4 "/>
<polygon fill-rule="evenodd" clip-rule="evenodd" class="t t2" fill="#8303A7" points="227.2,297.2 264.3,336.9 280.4,389.4 174,389.4 "/>
<polygon fill-rule="evenodd" clip-rule="evenodd" class="t t3" fill="#320049" points="227.2,297.2 174,205.1 280.4,205.1 263.8,257.8 "/>
<polygon fill-rule="evenodd" clip-rule="evenodd" class="t t4" fill="#530070" points="280.4,389.4 253.1,342 227.2,297.2 283.6,283.2 
	333.6,297.2 "/>
<polygon fill-rule="evenodd" clip-rule="evenodd" class="t t5" fill="#41005C" points="280.4,205.1 333.6,297.2 227.2,297.2 249.3,259 "/>
<polygon fill-rule="evenodd" clip-rule="evenodd" class="t t6" fill="#7D7D7D" points="120.8,20.7 163.3,70.9 174,112.9 121.6,134.5 67.6,112.9 
	"/>
<polygon fill-rule="evenodd" clip-rule="evenodd" class="t t7" fill="#A0A1A0" points="120.8,205.1 83.7,165.4 67.6,112.9 174,112.9 "/>
<polygon fill-rule="evenodd" clip-rule="evenodd" class="t t8" fill="#AF06DA" points="120.8,205.1 174,297.2 121.8,313.6 67.6,297.2 84.2,244.5 
	"/>
<polygon fill-rule="evenodd" clip-rule="evenodd" class="t t9" fill="#530070" points="67.6,112.9 94.9,160.3 120.8,205.1 64.4,219.1 14.4,205.1 
	"/>
<polygon fill-rule="evenodd" clip-rule="evenodd" class="t t10" fill="#8303A7" points="67.6,297.2 14.4,205.1 120.8,205.1 98.7,243.3 "/>
<polygon fill-rule="evenodd" clip-rule="evenodd" class="t t11" fill="#D30CFF" points="120.8,389.4 67.6,297.2 113.3,297.2 174,297.2 "/>
<polygon fill-rule="evenodd" clip-rule="evenodd" class="t t12" fill="#696A69" points="174,112.9 144.6,62 120.8,20.8 227.2,20.8 "/>
<polygon fill-rule="evenodd" clip-rule="evenodd" class="t t13" fill="#D30CFF" points="120.8,481.5 174,389.4 227.2,481.5 "/>
</svg>

