<svg version="1.1" id="Capa_1" xmlns="http://www.w3.org/2000/svg" xmlns:xlink="http://www.w3.org/1999/xlink" x="0px" y="0px"
	 viewBox="0 0 350 350" style="enable-background:new 0 0 350 350;" xml:space="preserve">
<g>
	<polygon points="133.105,113.151 137.443,113.151 137.443,131.997 141.18,131.997 141.18,109.827 133.105,109.827 	"/>
	<path d="M122.774,109.729c-6.081,0-9.439,3.993-9.439,11.183c0,7.188,3.358,11.182,9.439,11.182c6.05,0,9.408-3.993,9.408-11.182
		C132.183,113.722,128.824,109.729,122.774,109.729z M122.774,129.146c-3.739,0-5.607-2.628-5.607-8.234
		c0-5.638,1.868-8.235,5.607-8.235c3.708,0,5.576,2.598,5.576,8.235C128.351,126.518,126.482,129.146,122.774,129.146z"/>
	<polygon points="169.566,64.149 173.306,64.149 173.306,41.979 165.228,41.979 165.228,45.303 169.566,45.303 	"/>
	<polygon points="222.565,98.073 226.305,98.073 226.305,75.903 218.227,75.903 218.227,79.227 222.565,79.227 	"/>
	<path d="M187.02,41.882c-6.082,0-9.439,3.993-9.439,11.183c0,7.189,3.357,11.182,9.439,11.182c6.05,0,9.408-3.993,9.408-11.182
		C196.428,45.875,193.069,41.882,187.02,41.882z M187.02,61.299c-3.734,0-5.606-2.628-5.606-8.234c0-5.638,1.872-8.235,5.606-8.235
		c3.708,0,5.575,2.597,5.575,8.235C192.595,58.67,190.728,61.299,187.02,61.299z"/>
	<path d="M285.909,51.894C270.508,32.619,230.491,0,178.235,0c-34.938,0-68.188,14.607-98.819,43.417
		c-0.049,0.051-0.101,0.101-0.151,0.153c-29.868,30.728-25.965,59.11-21.022,95.066c0.304,2.21,0.611,4.452,0.917,6.729
		c0.818,6.11-4.526,15.537-9.701,24.653c-7.773,13.697-15.808,27.863-5.991,34.55c16.775,11.434,19.692,33.941,22.515,55.716
		c0.669,5.172,1.362,10.515,2.228,15.716c1.497,8.97,9.062,13.328,23.137,13.328c6.254,0,12.939-0.771,19.406-1.518
		c5.543-0.645,10.773-1.247,14.966-1.247c2.34,0,4.174,0.186,5.592,0.569c16.911,4.583,31.679,38.77,37.018,59.243
		c0.435,1.661,1.714,2.97,3.367,3.436c0.437,0.128,0.882,0.188,1.323,0.188c1.23,0,2.436-0.465,3.347-1.341l86.662-82.703
		c1.337-1.283,1.832-3.215,1.269-4.98c-7.655-23.943,8.245-47.305,22.282-67.933c6.12-8.999,11.903-17.494,15.862-25.865
		C320.686,128.559,307.539,78.959,285.909,51.894z M270.869,95.104c-2.725-0.533-4.161-2.91-4.315-7.32
		C268.315,89.997,269.773,92.455,270.869,95.104z M202.421,50.766c1.204,1.508,2.303,3.103,3.29,4.775
		c1.025-0.106,2.067-0.161,3.122-0.161c1.52,0,3.008,0.119,4.466,0.333c-0.536,3.785-2.34,5.586-5.4,5.586
		c-3.737,0-5.605-2.628-5.605-8.234C202.293,52.229,202.336,51.468,202.421,50.766z M132.403,78.753
		c3.709,0,5.576,2.598,5.576,8.235c0,5.606-1.867,8.234-5.576,8.234c-3.733,0-5.606-2.629-5.606-8.234
		C126.797,81.351,128.67,78.753,132.403,78.753z M116.655,82.955c0.293,1.115,0.448,2.45,0.448,4.033
		c0,5.606-1.868,8.234-5.576,8.234c-1.456,0-2.627-0.405-3.517-1.227C110.003,89.672,112.981,85.895,116.655,82.955z
		 M269.673,120.822v-10.996h-8.078v3.324h4.341v13.199c-5.572,6.554-13.874,10.72-23.149,10.72l-107.171-0.001
		c-11.424,0-21.369-6.31-26.559-15.632v-11.61h-3.66c-0.104-1.032-0.159-2.08-0.159-3.139c0-3.354,0.55-6.577,1.555-9.592
		c1.32,0.703,2.903,1.074,4.736,1.074c6.05,0,9.409-3.992,9.409-11.181c0-2.463-0.402-4.54-1.165-6.22
		c2.057-1.259,4.277-2.277,6.615-3.022c-2.229,1.849-3.422,4.978-3.422,9.242c0,7.189,3.357,11.181,9.438,11.181
		c6.05,0,9.409-3.992,9.409-11.181c0-7.19-3.359-11.183-9.409-11.183c-1.136,0-2.178,0.141-3.118,0.414
		c0.017-9.176,3.047-17.645,8.158-24.473v12.401h3.736V47.42c7.436-7.497,17.739-12.142,29.135-12.142
		c11.367,0,21.651,4.622,29.08,12.088c-0.617,1.584-0.934,3.487-0.934,5.698c0,7.189,3.354,11.182,9.438,11.182
		c5.001,0,8.159-2.737,9.1-7.75c1.941,0.541,3.806,1.269,5.566,2.164v5.488h3.74V60.91c5.225,3.681,9.236,8.965,11.318,15.141
		c-4.558,0.952-7.041,4.759-7.041,10.938c0,7.189,3.359,11.181,9.44,11.181c6.05,0,9.403-3.992,9.403-11.181
		c0-5.695-2.112-9.374-5.992-10.66c2.381,0.05,4.698,0.364,6.916,0.933v1.966h4.34v18.846h3.737V80.646
		c1.608,0.968,3.118,2.084,4.514,3.325c-0.149,0.935-0.235,1.934-0.235,3.018c0,7.106,3.286,11.082,9.235,11.171
		c0.791,2.709,1.221,5.567,1.221,8.53C273.161,111.793,271.898,116.6,269.673,120.822z M240.023,78.753
		c3.702,0,5.575,2.598,5.575,8.235c0,5.606-1.873,8.234-5.575,8.234c-3.739,0-5.607-2.629-5.607-8.234
		C234.415,81.351,236.283,78.753,240.023,78.753z"/>
	<path d="M251.269,109.729c-6.081,0-9.439,3.993-9.439,11.183c0,7.188,3.358,11.182,9.439,11.182c6.05,0,9.403-3.993,9.403-11.182
		C260.672,113.722,257.318,109.729,251.269,109.729z M251.269,129.146c-3.738,0-5.607-2.628-5.607-8.234
		c0-5.638,1.868-8.235,5.607-8.235c3.702,0,5.575,2.598,5.575,8.235C256.844,126.518,254.971,129.146,251.269,129.146z"/>
	<path d="M187.02,109.729c-6.082,0-9.439,3.993-9.439,11.183c0,7.188,3.357,11.182,9.439,11.182c6.05,0,9.408-3.993,9.408-11.182
		C196.428,113.722,193.069,109.729,187.02,109.729z M187.02,129.146c-3.734,0-5.606-2.628-5.606-8.234
		c0-5.638,1.872-8.235,5.606-8.235c3.708,0,5.575,2.598,5.575,8.235C192.595,126.518,190.728,129.146,187.02,129.146z"/>
	<polygon points="197.35,113.151 201.688,113.151 201.688,131.997 205.429,131.997 205.429,109.827 197.35,109.827 	"/>
	<polygon points="229.472,113.151 233.811,113.151 233.811,131.997 237.551,131.997 237.551,109.827 229.472,109.827 	"/>
	<polygon points="194.182,98.073 194.182,75.903 186.103,75.903 186.103,79.227 190.441,79.227 190.441,98.073 	"/>
	<path d="M164.526,75.806c-6.081,0-9.437,3.993-9.437,11.183c0,7.189,3.355,11.181,9.437,11.181c6.05,0,9.407-3.992,9.407-11.181
		C173.934,79.798,170.576,75.806,164.526,75.806z M164.526,95.223c-3.734,0-5.607-2.629-5.607-8.234
		c0-5.638,1.873-8.235,5.607-8.235c3.708,0,5.576,2.598,5.576,8.235C170.103,92.594,168.234,95.223,164.526,95.223z"/>
	<polygon points="179.194,98.073 182.936,98.073 182.936,75.903 174.856,75.903 174.856,79.227 179.194,79.227 	"/>
	<path d="M154.897,64.246c6.05,0,9.408-3.993,9.408-11.182c0-7.19-3.358-11.183-9.408-11.183c-6.081,0-9.44,3.993-9.44,11.183
		C145.456,60.253,148.815,64.246,154.897,64.246z M154.897,44.829c3.707,0,5.575,2.597,5.575,8.235c0,5.606-1.868,8.234-5.575,8.234
		c-3.736,0-5.607-2.628-5.607-8.234C149.289,47.426,151.16,44.829,154.897,44.829z"/>
	<path d="M217.304,86.988c0-7.19-3.356-11.183-9.405-11.183c-6.084,0-9.438,3.993-9.438,11.183c0,7.189,3.354,11.181,9.438,11.181
		C213.947,98.169,217.304,94.177,217.304,86.988z M207.898,95.223c-3.737,0-5.605-2.629-5.605-8.234
		c0-5.638,1.868-8.235,5.605-8.235c3.704,0,5.572,2.598,5.572,8.235C213.471,92.594,211.603,95.223,207.898,95.223z"/>
	<path d="M219.143,109.729c-6.082,0-9.436,3.993-9.436,11.183c0,7.188,3.354,11.182,9.436,11.182c6.051,0,9.406-3.993,9.406-11.182
		C228.549,113.722,225.193,109.729,219.143,109.729z M219.143,129.146c-3.734,0-5.605-2.628-5.605-8.234
		c0-5.638,1.871-8.235,5.605-8.235c3.707,0,5.574,2.598,5.574,8.235C224.717,126.518,222.85,129.146,219.143,129.146z"/>
	<polygon points="147.073,98.073 150.813,98.073 150.813,75.903 142.734,75.903 142.734,79.227 147.073,79.227 	"/>
	<path d="M154.897,109.729c-6.081,0-9.44,3.993-9.44,11.183c0,7.188,3.359,11.182,9.44,11.182c6.05,0,9.408-3.993,9.408-11.182
		C164.305,113.722,160.946,109.729,154.897,109.729z M154.897,129.146c-3.736,0-5.607-2.628-5.607-8.234
		c0-5.638,1.871-8.235,5.607-8.235c3.707,0,5.575,2.598,5.575,8.235C160.472,126.518,158.604,129.146,154.897,129.146z"/>
	<polygon points="165.228,113.151 169.566,113.151 169.566,131.997 173.306,131.997 173.306,109.827 165.228,109.827 	"/>
</g>
<g>
</g>
<g>
</g>
<g>
</g>
<g>
</g>
<g>
</g>
<g>
</g>
<g>
</g>
<g>
</g>
<g>
</g>
<g>
</g>
<g>
</g>
<g>
</g>
<g>
</g>
<g>
</g>
<g>
</g>
</svg>
