<?xml version="1.0" encoding="utf-8"?>
<!-- Generator: Adobe Illustrator 19.1.0, SVG Export Plug-In . SVG Version: 6.00 Build 0)  -->
<svg version="1.2" baseProfile="tiny" id="Layer_1" xmlns="http://www.w3.org/2000/svg" xmlns:xlink="http://www.w3.org/1999/xlink"
	 x="0px" y="0px" viewBox="0 0 558 111.8" xml:space="preserve">
<g>
	<path fill-rule="evenodd" fill="#732B90" d="M40.1,73.6c-2.3-1.3-4.4-3-6.3-5v4.9v1.8H32h-5.9h-1.8v-1.8V8.8V7h1.8H32h1.8v1.8v19.6
		c1.9-2.1,4-3.7,6.3-5c3.7-2.1,7.9-3.1,12.5-3.1c3.9,0,7.5,0.7,10.9,2.1c3.3,1.4,6.4,3.5,9.1,6.2l0,0c2.8,2.7,4.9,5.7,6.3,9
		c1.4,3.3,2.1,6.9,2.1,10.9c0,3.9-0.7,7.5-2.1,10.9c-1.4,3.3-3.5,6.4-6.3,9.1l0,0c-5.5,5.5-12.2,8.3-20,8.3
		C48,76.7,43.8,75.7,40.1,73.6L40.1,73.6z M180.7,42.7L180.7,42.7l0,30.8v1.8h-1.8h-5.9h-1.8v-1.8V23.5v-1.8h1.8h5.9h1.8v1.8v3.4
		c1-1,2.1-1.9,3.4-2.9c1.8-1.3,3.6-2.2,5.6-2.9c2-0.6,4-0.9,6.1-0.9c3.4,0,6.4,0.5,9,1.5c2.7,1,5,2.5,7,4.6c1.9,2,3.4,4.3,4.3,6.9
		c1,2.6,1.4,5.5,1.4,8.7v31.5v1.8h-1.8h-5.9H208v-1.8V42c0-1.9-0.3-3.5-0.9-5c-0.6-1.5-1.6-2.8-2.8-3.9c-1.2-1.2-2.6-2-4.2-2.6
		c-1.6-0.6-3.3-0.9-5.2-0.9c-1.9,0-3.6,0.3-5.2,1c-1.6,0.6-3.2,1.6-4.6,3c-1.4,1.3-2.5,2.7-3.2,4.3
		C181.2,39.3,180.8,40.9,180.7,42.7L180.7,42.7z M131.5,66.1c2.2,0.9,4.6,1.4,7.1,1.4c2.6,0,5-0.5,7.2-1.4c2.2-0.9,4.2-2.3,6-4.1
		l0,0c1.9-1.9,3.2-3.9,4.1-6.1c0.9-2.2,1.4-4.7,1.4-7.3c0-2.6-0.5-5-1.4-7.2c-0.9-2.2-2.3-4.2-4.1-6.1l0,0c-1.8-1.9-3.8-3.3-6-4.2
		c-2.2-0.9-4.6-1.4-7.2-1.4c-2.6,0-4.9,0.5-7.1,1.4c-2.2,0.9-4.2,2.3-6.1,4.2v0c-1.9,1.9-3.2,3.9-4.2,6.1c-0.9,2.2-1.4,4.6-1.4,7.2
		c0,2.7,0.5,5.1,1.4,7.3c0.9,2.2,2.3,4.3,4.1,6.1C127.3,63.8,129.3,65.2,131.5,66.1L131.5,66.1z M158.7,68.5
		c-5.5,5.5-12.2,8.3-20.1,8.3c-3.9,0-7.5-0.7-10.9-2.1c-3.3-1.4-6.4-3.5-9.2-6.2l0,0c-5.5-5.5-8.3-12.2-8.3-20
		c0-3.9,0.7-7.5,2.1-10.8c1.4-3.3,3.5-6.3,6.2-9.1c5.6-5.5,12.2-8.3,20.1-8.3c3.9,0,7.5,0.7,10.9,2.1c3.4,1.4,6.4,3.5,9.2,6.2l0,0
		c5.5,5.4,8.3,12.1,8.3,19.9c0,3.9-0.7,7.5-2.1,10.9C163.5,62.7,161.5,65.7,158.7,68.5L158.7,68.5z M98,22.7c-1,0.6-2,1.3-2.8,2.1
		v-1.3v-1.8h-1.8h-5.9h-1.8v1.8v49.9v1.8h1.8h5.9h1.8v-1.8V41.2c0-3.2,1.1-5.9,3.4-8.2c1.2-1.2,2.4-2,3.8-2.6
		c1.3-0.6,2.8-0.8,4.4-0.8c0.6,0,1.1,0.1,1.6,0.1c0.6,0.1,1.2,0.3,1.8,0.5l1.7,0.5l0.6-1.6l1.9-5.4l0.6-1.8l-1.8-0.5
		c-1.1-0.3-2.2-0.6-3.3-0.8c-1.1-0.2-2.1-0.3-3.1-0.3C103.6,20.3,100.6,21.2,98,22.7L98,22.7z M35.2,41.2c-0.9,2.2-1.4,4.6-1.4,7.2
		c0,2.7,0.5,5.1,1.4,7.3c0.9,2.2,2.3,4.3,4.1,6.1c1.8,1.8,3.9,3.2,6.1,4.1l0,0c2.2,0.9,4.6,1.4,7.2,1.4c2.6,0,5-0.5,7.2-1.4
		c2.2-0.9,4.2-2.3,6-4.1l0,0c1.9-1.9,3.2-3.9,4.1-6.1c0.9-2.2,1.4-4.7,1.4-7.3c0-5.2-1.8-9.6-5.5-13.3l0,0c-1.8-1.9-3.8-3.3-6-4.2
		c-2.2-0.9-4.6-1.4-7.2-1.4c-2.6,0-5,0.5-7.2,1.4l0,0c-2.2,0.9-4.3,2.3-6.1,4.2l0,0C37.4,37,36.1,39,35.2,41.2z"/>
	<path fill-rule="evenodd" fill="#333333" d="M223.8,69.7c5.8,3.7,12.6,5.6,20.6,5.6c12.9,0,21.1-6.1,21.2-15.7
		c0.1-9.3-5.9-14.3-14.5-15.5l-10.1-1.6c-6.5-0.8-9.9-3.7-9.9-8.5c0-4.3,5.5-7.8,13.4-7.8c6.2,0,11.8,1.4,16.9,4.3l2.9-5.1
		c-5.6-3.4-12.2-5.1-19.7-5.1c-5.5,0-10,1.3-13.9,3.8c-3.9,2.4-5.7,5.8-5.7,10.1c0,8.9,6.1,13,14.1,14.2l10,1.6
		c7,1.1,10.5,4.2,10.5,9.3c0,6.2-5.6,10.1-14.9,10.1c-6,0-11.8-1.6-17.3-4.8L223.8,69.7L223.8,69.7z M529.2,74.4
		c2.4,0,4.5-2.1,4.5-4.6c0-2.5-2.1-4.6-4.5-4.6c-2.6,0-4.7,2.1-4.7,4.6C524.5,72.4,526.6,74.4,529.2,74.4L529.2,74.4z M519.5,28.3
		c-5.4-5.4-11.9-8.1-19.5-8.1c-7.6,0-14.1,2.7-19.5,8.1c-5.4,5.3-8.1,11.7-8.1,19.4c0,7.6,2.7,14.2,8.1,19.5c5.4,5.3,11.8,8,19.5,8
		c7.5,0,14.1-2.7,19.5-8.1l-4.3-4.2c-4.2,4.2-9.3,6.4-15.2,6.4c-5.8,0-10.8-2.1-15.1-6.3c-4.1-4.2-6.2-9.3-6.2-15.3
		c0-5.9,2.1-10.9,6.2-15.2c4.2-4.2,9.2-6.4,15.1-6.4c5.9,0,11,2.2,15.2,6.4L519.5,28.3L519.5,28.3z M428.7,73.7v-32
		c0.1-4.2,1.8-7.9,5.1-10.9c3.3-3,7.2-4.6,11.5-4.6c4.4,0,8.1,1.3,11,4.1c3,2.8,4.5,6.3,4.5,10.7v32.7h6.1V41c0-6.2-1.8-11.2-5.5-15
		c-3.7-3.9-8.7-5.7-15.2-5.7c-4,0-7.7,1.2-11,3.6c-3.3,2.4-5.5,4.9-6.5,7.5v-9.6h-6.1v51.9H428.7L428.7,73.7z M409.2,73.7h6.1V21.8
		h-6.1V73.7L409.2,73.7z M409.4,11.8c3.5,3.9,9.7-2.3,5.6-5.6C411.7,2.2,405.5,8.3,409.4,11.8L409.4,11.8z M389.2,69.8
		c0-2.5-2.1-4.6-4.6-4.6c-2.6,0-4.6,2.1-4.6,4.6c0,2.6,2,4.7,4.6,4.7c0.4,0,0.6-0.1,0.8-0.2v1.5c0,1.9-1.3,3.5-3,3.5h-1v4.3h1
		c3.7,0,6.8-3.5,6.8-7.8V69.8L389.2,69.8z M375,28.3c-5.4-5.4-11.9-8.1-19.5-8.1c-7.6,0-14.1,2.7-19.5,8.1
		c-5.4,5.3-8.1,11.7-8.1,19.4c0,7.6,2.7,14.2,8.1,19.5c5.4,5.3,11.8,8,19.5,8c7.5,0,14.1-2.7,19.5-8.1l-4.3-4.2
		c-4.2,4.2-9.3,6.4-15.2,6.4c-5.8,0-10.8-2.1-15.1-6.3c-4.1-4.2-6.2-9.3-6.2-15.3c0-5.9,2.1-10.9,6.2-15.2c4.2-4.2,9.2-6.4,15.1-6.4
		c5.9,0,11,2.2,15.2,6.4L375,28.3L375,28.3z M324.2,47.7c0-7.6-2.7-14.1-8.1-19.4c-5.3-5.4-11.7-8.1-19.4-8.1
		c-7.5,0-14,2.7-19.4,8.1c-5.3,5.3-8,11.7-8,19.4c0,7.6,2.7,14.1,8,19.5c5.4,5.4,11.8,8.1,19.4,8.1c10.1,0,19.1-5.6,24-14.3l-5.2-3
		c-3.6,6.9-10.8,11.5-18.8,11.5c-5.3,0-10-1.8-13.9-5.3c-3.9-3.6-6.3-8-7.1-13.3h48.1C324.1,49.8,324.2,48.8,324.2,47.7L324.2,47.7z
		 M275.8,44.7c0.8-5.2,3.1-9.6,7.1-13.1c3.9-3.6,8.6-5.4,13.9-5.4c5.3,0,10,1.8,13.9,5.4c4,3.5,6.4,7.9,7.2,13.1H275.8z"/>
</g>
<path fill-rule="evenodd" fill="#333333" d="M37.1,94.6c-0.1-3.7-2.8-5.3-6.2-5.3c-3.1,0-6.1,1.5-6.1,4.9c0,3.1,2.7,3.9,5.4,4.5
	c2.7,0.6,5.4,1,5.4,3.3c0,2.4-2.2,3.1-4.3,3.1c-2.5,0-4.9-1.2-4.9-4.1h-2.1c0,4.1,3.2,5.9,6.9,5.9c3.1,0,6.6-1.4,6.6-5
	c0-3.3-2.7-4.2-5.4-4.9c-2.7-0.6-5.4-0.9-5.4-3c0-2.2,1.9-2.9,3.8-2.9c2.3,0,3.9,1,4.2,3.4H37.1L37.1,94.6z M49,106.5h2.2V91.6h5.6
	v-1.9H43.4v1.9H49V106.5L49,106.5z M65.5,97.5v-5.9h5.6c2.1,0,3,1.2,3,2.9c0,2.5-1.8,3-3.9,3H65.5L65.5,97.5z M63.3,106.5h2.2v-7.2
	H71c2.2,0,2.6,1.4,2.8,3c0.3,1.6,0,3.5,0.6,4.1h2.5c-0.9-1.2-0.8-3-1-4.6c-0.2-1.6-0.6-3.1-2.5-3.5v0c2-0.6,2.9-2.2,2.9-4.3
	c0-2.7-2-4.4-5.1-4.4h-7.9V106.5L63.3,106.5z M82,106.5h2.3l1.9-5.1h7.1l1.8,5.1h2.5L91,89.7h-2.5L82,106.5L82,106.5z M89.7,91.7
	L89.7,91.7l2.9,7.8h-5.7L89.7,91.7L89.7,91.7z M105.5,106.5h2.2V91.6h5.6v-1.9H99.9v1.9h5.6V106.5L105.5,106.5z M119.8,106.5h11.7
	v-1.9H122v-5.8h8.7V97H122v-5.3h9.4v-1.9h-11.6V106.5L119.8,106.5z M151.9,106.5h1.4v-8.9H146v1.9h5.4c0.1,3.1-1.9,5.5-5.4,5.5
	c-3.7,0-5.8-3.2-5.8-6.7c0-3.6,1.7-7.1,5.8-7.1c2.5,0,4.5,1.2,5,3.7h2.2c-0.6-3.9-3.6-5.6-7.2-5.6c-5.3,0-8,4.2-8,9.1
	c0,4.4,3,8.5,8,8.5c2,0,4.1-0.7,5.4-2.5L151.9,106.5L151.9,106.5z M161.3,106.5h2.2V89.7h-2.2V106.5L161.3,106.5z M186,94.8
	c-0.5-3.6-3.4-5.5-6.9-5.5c-5.2,0-8,4-8,8.9c0,4.9,2.5,8.8,7.8,8.8c4.2,0,6.9-2.5,7.3-6.7h-2.2c-0.2,2.8-1.9,4.9-4.9,4.9
	c-4,0-5.7-3.2-5.7-7c0-3.5,1.7-6.8,5.7-6.8c2.3,0,4.2,1.2,4.7,3.6H186L186,94.8z M215.5,94.6c-0.1-3.7-2.8-5.3-6.2-5.3
	c-3.1,0-6.1,1.5-6.1,4.9c0,3.1,2.7,3.9,5.4,4.5c2.7,0.6,5.4,1,5.4,3.3c0,2.4-2.2,3.1-4.3,3.1c-2.5,0-4.9-1.2-4.9-4.1h-2.1
	c0,4.1,3.2,5.9,6.9,5.9c3.1,0,6.6-1.4,6.6-5c0-3.3-2.7-4.2-5.4-4.9c-2.7-0.6-5.4-0.9-5.4-3c0-2.2,1.9-2.9,3.8-2.9
	c2.3,0,3.9,1,4.2,3.4H215.5L215.5,94.6z M223.6,106.5h11.7v-1.9h-9.4v-5.8h8.7V97h-8.7v-5.3h9.4v-1.9h-11.6V106.5L223.6,106.5z
	 M256.6,94.8c-0.5-3.6-3.4-5.5-6.9-5.5c-5.2,0-8,4-8,8.9c0,4.9,2.5,8.8,7.8,8.8c4.2,0,6.9-2.5,7.3-6.7h-2.2
	c-0.2,2.8-1.9,4.9-4.9,4.9c-4,0-5.7-3.2-5.7-7c0-3.5,1.7-6.8,5.7-6.8c2.3,0,4.2,1.2,4.7,3.6H256.6L256.6,94.8z M277.6,89.7h-2.2
	v10.7c0,3-1.6,4.6-4.4,4.6c-3,0-4.7-1.6-4.7-4.6V89.7H264v10.7c0,4.5,2.6,6.5,6.9,6.5c4.2,0,6.6-2.2,6.6-6.5V89.7L277.6,89.7z
	 M288,97.5v-5.9h5.6c2.1,0,3,1.2,3,2.9c0,2.5-1.8,3-3.9,3H288L288,97.5z M285.7,106.5h2.2v-7.2h5.5c2.2,0,2.6,1.4,2.8,3
	c0.3,1.6,0,3.5,0.6,4.1h2.5c-0.9-1.2-0.8-3-1-4.6c-0.2-1.6-0.6-3.1-2.5-3.5v0c2-0.6,2.9-2.2,2.9-4.3c0-2.7-2-4.4-5.1-4.4h-7.9V106.5
	L285.7,106.5z M306.5,106.5h2.2V89.7h-2.2V106.5L306.5,106.5z M321,106.5h2.2V91.6h5.6v-1.9h-13.5v1.9h5.6V106.5L321,106.5z
	 M348.6,89.7h-2.5l-4.9,8l-5-8h-2.7l6.5,9.9v6.9h2.2v-6.9L348.6,89.7L348.6,89.7z M377.1,94.6c-0.1-3.7-2.8-5.3-6.2-5.3
	c-3.1,0-6.1,1.5-6.1,4.9c0,3.1,2.7,3.9,5.4,4.5c2.7,0.6,5.4,1,5.4,3.3c0,2.4-2.2,3.1-4.3,3.1c-2.5,0-4.9-1.2-4.9-4.1h-2.1
	c0,4.1,3.2,5.9,6.9,5.9c3.1,0,6.6-1.4,6.6-5c0-3.3-2.7-4.2-5.4-4.9c-2.7-0.6-5.4-0.9-5.4-3c0-2.2,1.9-2.9,3.8-2.9
	c2.3,0,3.9,1,4.2,3.4H377.1L377.1,94.6z M384.2,98.1c0,4.6,2.7,8.8,8.1,8.8c5.3,0,8.1-4.2,8.1-8.8c0-4.6-2.7-8.8-8.1-8.8
	C386.9,89.3,384.2,93.6,384.2,98.1L384.2,98.1z M386.4,98.1c0-3.4,1.7-6.9,5.8-6.9c4.1,0,5.8,3.5,5.8,6.9c0,3.4-1.7,6.9-5.8,6.9
	C388.1,105.1,386.4,101.5,386.4,98.1L386.4,98.1z M407.6,106.5h11.1v-1.9h-8.9V89.7h-2.2V106.5L407.6,106.5z M438.7,89.7h-2.2v10.7
	c0,3-1.6,4.6-4.4,4.6c-3,0-4.7-1.6-4.7-4.6V89.7h-2.2v10.7c0,4.5,2.6,6.5,6.9,6.5c4.2,0,6.6-2.2,6.6-6.5V89.7L438.7,89.7z
	 M450.7,106.5h2.2V91.6h5.6v-1.9h-13.5v1.9h5.6V106.5L450.7,106.5z M465.1,106.5h2.2V89.7h-2.2V106.5L465.1,106.5z M474.8,98.1
	c0,4.6,2.7,8.8,8.1,8.8c5.3,0,8.1-4.2,8.1-8.8c0-4.6-2.7-8.8-8.1-8.8C477.5,89.3,474.8,93.6,474.8,98.1L474.8,98.1z M477,98.1
	c0-3.4,1.7-6.9,5.8-6.9c4.1,0,5.8,3.5,5.8,6.9c0,3.4-1.7,6.9-5.8,6.9C478.7,105.1,477,101.5,477,98.1L477,98.1z M498.2,106.5h2.1V93
	h0l8.8,13.5h2.4V89.7h-2.1v13.6h0l-8.9-13.6h-2.4V106.5L498.2,106.5z M531.6,94.6c-0.1-3.7-2.8-5.3-6.2-5.3c-3.1,0-6.1,1.5-6.1,4.9
	c0,3.1,2.7,3.9,5.4,4.5c2.7,0.6,5.4,1,5.4,3.3c0,2.4-2.2,3.1-4.3,3.1c-2.5,0-4.9-1.2-4.9-4.1h-2.1c0,4.1,3.2,5.9,6.9,5.9
	c3.1,0,6.6-1.4,6.6-5c0-3.3-2.7-4.2-5.4-4.9c-2.7-0.6-5.4-0.9-5.4-3c0-2.2,1.9-2.9,3.8-2.9c2.3,0,3.9,1,4.2,3.4H531.6z"/>
</svg>
