<?xml version="1.0" standalone="no"?>
<!DOCTYPE svg PUBLIC "-//W3C//DTD SVG 20010904//EN"
 "http://www.w3.org/TR/2001/REC-SVG-20010904/DTD/svg10.dtd">
<svg version="1.0" xmlns="http://www.w3.org/2000/svg"
 width="1000.000000pt" height="1000.000000pt" viewBox="0 0 1000.000000 1000.000000"
 preserveAspectRatio="xMidYMid meet">
<metadata>
Created by potrace 1.11, written by Peter Selinger 2001-2013
</metadata>
<g transform="translate(0.000000,1000.000000) scale(0.100000,-0.100000)"
fill="#000000" stroke="none">
<path d="M3386 8760 c-295 -511 -536 -934 -536 -940 0 -7 333 -10 1073 -10
l1072 0 115 198 c115 200 176 304 678 1174 155 268 282 492 282 498 0 7 -349
10 -1074 10 l-1073 0 -537 -930z"/>
<path d="M2748 7663 c-46 -81 -230 -400 -408 -708 -178 -308 -383 -663 -455
-789 l-132 -229 49 -86 c28 -47 193 -333 368 -636 175 -302 398 -689 497 -860
284 -491 988 -1709 1123 -1943 67 -117 126 -210 131 -205 7 8 79 131 449 773
106 184 289 501 407 704 117 203 213 375 213 382 0 7 -29 61 -64 121 -144 246
-1006 1743 -1006 1747 0 7 -1070 1859 -1079 1869 -4 4 -46 -59 -93 -140z"/>
<path d="M5000 5935 c0 -5 141 -250 763 -1325 170 -294 310 -539 310 -545 0
-5 -236 -419 -525 -920 -289 -500 -535 -927 -547 -948 -20 -35 -137 -239 -848
-1470 -123 -213 -226 -393 -229 -400 -3 -9 233 -12 1073 -12 l1078 0 21 35
c12 19 259 447 550 950 290 503 574 994 629 1090 108 187 428 741 763 1319
198 344 204 355 189 380 -51 90 -733 1271 -883 1531 l-182 315 -1081 3 c-595
1 -1081 0 -1081 -3z"/>
</g>
</svg>
