<?xml version="1.0" standalone="no"?>
<!DOCTYPE svg PUBLIC "-//W3C//DTD SVG 20010904//EN"
 "http://www.w3.org/TR/2001/REC-SVG-20010904/DTD/svg10.dtd">
<svg version="1.0" xmlns="http://www.w3.org/2000/svg"
 width="1000.000000pt" height="1000.000000pt" viewBox="0 0 1000.000000 1000.000000"
 preserveAspectRatio="xMidYMid meet">
<metadata>
Created by potrace 1.11, written by Peter Selinger 2001-2013
</metadata>
<g transform="translate(0.000000,1000.000000) scale(0.100000,-0.100000)"
fill="#000000" stroke="none">
<path d="M3881 9627 c-19 -34 -114 -199 -211 -367 -97 -168 -188 -325 -202
-350 -14 -25 -57 -99 -95 -165 -83 -142 -291 -504 -322 -558 -12 -21 -28 -48
-35 -60 -8 -12 -26 -42 -40 -67 -14 -25 -55 -97 -91 -160 -37 -63 -70 -122
-76 -130 -23 -37 -279 -483 -279 -487 0 -3 -8 -17 -19 -31 -10 -15 -31 -49
-46 -77 -60 -109 -299 -522 -316 -547 -11 -15 -19 -29 -19 -32 0 -3 -20 -40
-45 -82 -25 -41 -45 -80 -45 -85 0 -5 -4 -9 -10 -9 -5 0 -10 -5 -10 -10 0 -6
-18 -40 -40 -76 -22 -36 -40 -68 -40 -70 0 -3 -12 -23 -27 -47 -14 -23 -40
-67 -56 -97 -17 -30 -47 -83 -68 -118 l-38 -62 148 -258 c159 -277 240 -416
290 -500 17 -29 31 -55 31 -57 0 -3 17 -33 38 -67 21 -35 50 -83 64 -108 21
-38 70 -122 229 -397 46 -80 59 -102 94 -163 21 -36 45 -78 55 -95 9 -16 51
-88 92 -160 42 -71 85 -147 97 -168 12 -20 29 -52 40 -70 25 -45 465 -805 487
-844 77 -130 114 -197 114 -204 0 -5 5 -9 10 -9 6 0 10 -4 10 -9 0 -6 50 -96
110 -201 61 -104 119 -205 129 -223 45 -78 123 -212 126 -215 1 -2 31 48 66
110 35 62 67 115 71 116 4 2 8 8 8 12 0 6 407 719 480 840 12 21 287 496 381
659 l78 135 -23 40 c-22 38 -75 130 -116 201 -246 424 -357 619 -378 655 -13
25 -28 50 -32 55 -4 6 -18 28 -30 50 -37 68 -134 235 -158 273 -12 21 -25 44
-29 52 -4 8 -16 31 -28 50 -12 19 -33 55 -47 80 -14 25 -73 128 -132 229 -58
102 -106 186 -106 188 0 2 26 50 59 106 32 56 71 125 86 152 15 28 34 57 41
66 8 8 14 18 14 21 0 3 82 147 181 319 100 173 190 330 201 349 61 108 102
178 116 200 9 14 17 27 17 30 0 3 8 16 17 30 8 14 66 113 128 220 116 202 156
271 177 305 7 11 16 27 20 35 4 8 35 64 70 123 35 60 74 127 87 151 45 80 51
91 56 96 3 3 13 20 23 38 9 17 25 47 35 65 9 17 20 34 25 35 4 2 7 7 7 11 0 4
41 79 92 167 50 87 114 197 141 244 26 47 58 101 69 120 32 55 348 601 427
739 39 68 71 125 71 127 0 2 -487 4 -1082 4 l-1083 0 -34 -63z"/>
<path d="M5000 5934 c0 -2 101 -179 224 -393 124 -213 233 -403 244 -422 11
-19 151 -261 312 -539 161 -278 292 -509 293 -515 0 -5 -45 -87 -100 -181 -55
-94 -103 -178 -107 -185 -3 -8 -15 -28 -25 -45 -22 -35 -163 -279 -195 -336
-12 -20 -50 -87 -86 -149 -36 -61 -72 -124 -80 -138 -8 -14 -31 -53 -50 -86
-19 -33 -39 -69 -45 -80 -11 -19 -221 -382 -263 -455 -11 -19 -43 -73 -70
-120 -26 -47 -71 -124 -99 -171 -27 -48 -53 -93 -57 -100 -3 -8 -16 -30 -27
-49 -12 -19 -91 -156 -177 -305 -85 -148 -177 -307 -204 -352 -27 -45 -49 -86
-49 -90 0 -4 -6 -15 -13 -23 -12 -13 -28 -41 -112 -189 -11 -20 -89 -155 -174
-301 -220 -381 -220 -381 -220 -391 0 -3 484 -6 1075 -6 968 0 1076 2 1088 16
16 20 87 140 87 148 0 4 6 14 14 22 8 9 27 40 42 69 16 29 34 61 39 70 6 9 33
58 61 107 29 50 83 144 121 210 39 66 105 180 147 252 157 273 228 396 405
702 99 172 181 318 181 322 0 5 5 9 10 9 6 0 10 4 10 10 0 9 53 103 302 530
31 52 67 115 80 140 24 42 188 326 229 395 10 17 30 53 44 80 15 28 32 57 39
65 6 8 16 24 22 35 25 45 220 384 250 435 18 30 43 74 54 97 l22 42 -55 93
c-30 51 -65 111 -77 133 -12 22 -44 77 -71 123 -27 45 -49 87 -49 92 0 6 -4
10 -8 10 -4 0 -13 12 -19 28 -7 15 -17 34 -23 42 -17 26 -250 431 -250 437 0
2 -13 24 -30 48 -16 24 -30 46 -30 48 0 4 -261 459 -280 487 -6 8 -14 24 -20
35 -5 11 -45 81 -88 155 l-79 135 -1082 2 c-594 0 -1081 -1 -1081 -3z"/>
</g>
</svg>
